<svg width="321" height="335" viewBox="0 0 321 335" fill="none" xmlns="http://www.w3.org/2000/svg">
<path d="M321 323.5L310.3 319.158L311.89 330.595L321 323.5ZM115.26 0.827608C115.038 1.0714 114.817 1.31562 114.595 1.56027L116.078 2.90277C116.299 2.65889 116.519 2.41543 116.74 2.17239L115.26 0.827608ZM113.265 3.0332C112.822 3.52586 112.378 4.02019 111.935 4.51618L113.426 5.84956C113.868 5.3551 114.31 4.86229 114.752 4.37115L113.265 3.0332ZM110.604 6.00906C110.16 6.50833 109.716 7.00922 109.272 7.51172L110.771 8.83592C111.213 8.33495 111.656 7.83559 112.098 7.33786L110.604 6.00906ZM107.94 9.02402C107.496 9.52971 107.052 10.037 106.608 10.5458L108.115 11.8608C108.558 11.3535 109 10.8478 109.443 10.3436L107.94 9.02402ZM105.276 12.077C104.833 12.5877 104.39 13.0999 103.948 13.6136L105.463 14.9192C105.904 14.4071 106.345 13.8964 106.787 13.3873L105.276 12.077ZM102.652 15.1212C102.221 15.6252 101.789 16.1306 101.357 16.6374L102.88 17.9339C103.31 17.4286 103.741 16.9248 104.171 16.4223L102.652 15.1212ZM100.063 18.1618C99.6323 18.6714 99.2013 19.1823 98.7705 19.6946L100.301 20.9819C100.731 20.4711 101.16 19.9618 101.59 19.4538L100.063 18.1618ZM97.4786 21.2354C97.0482 21.7504 96.618 22.2667 96.188 22.7843L97.7265 24.0622C98.1551 23.5462 98.584 23.0315 99.0131 22.5181L97.4786 21.2354ZM94.8989 24.341C94.4695 24.8612 94.0403 25.3826 93.6114 25.9054L95.1576 27.1739C95.5852 26.6528 96.0131 26.1328 96.4412 25.6142L94.8989 24.341ZM92.337 27.4636C91.9172 27.9786 91.4976 28.4948 91.0784 29.0121L92.6323 30.2712C93.0502 29.7554 93.4685 29.2408 93.8871 28.7274L92.337 27.4636ZM89.8218 30.5677C89.4033 31.0874 88.9852 31.6083 88.5675 32.1303L90.129 33.3799C90.5455 32.8595 90.9623 32.3402 91.3795 31.8221L89.8218 30.5677ZM87.3155 33.6997C86.8986 34.224 86.4821 34.7494 86.0661 35.2759L87.6353 36.5159C88.05 35.991 88.4652 35.4672 88.8809 34.9446L87.3155 33.6997ZM84.8193 36.8587C84.4042 37.3873 83.9896 37.9171 83.5755 38.4479L85.1524 39.6781C85.5652 39.149 85.9786 38.6208 86.3924 38.0938L84.8193 36.8587ZM82.3346 40.0436C81.9249 40.5722 81.5156 41.1019 81.1069 41.6326L82.6915 42.8529C83.0989 42.3239 83.5069 41.7958 83.9154 41.2688L82.3346 40.0436ZM79.8882 43.2202C79.4825 43.7504 79.0774 44.2815 78.6729 44.8136L80.2651 46.024C80.6683 45.4935 81.0722 44.9641 81.4766 44.4355L79.8882 43.2202ZM77.4612 46.4129C77.0579 46.9469 76.6552 47.4819 76.2532 48.0178L77.853 49.218C78.2538 48.6838 78.6552 48.1505 79.0572 47.6182L77.4612 46.4129ZM75.049 49.6282C74.6483 50.1659 74.2483 50.7046 73.8489 51.2441L75.4565 52.434C75.8545 51.8962 76.2533 51.3593 76.6527 50.8233L75.049 49.6282ZM72.653 52.8652C72.2551 53.4065 71.8579 53.9486 71.4615 54.4916L73.0767 55.671C73.4719 55.1298 73.8678 54.5894 74.2644 54.0499L72.653 52.8652ZM70.2795 56.116C69.887 56.6573 69.4953 57.1994 69.1043 57.7423L70.7274 58.911C71.117 58.3699 71.5075 57.8296 71.8987 57.29L70.2795 56.116ZM67.9339 59.3735C67.5446 59.918 67.156 60.4633 66.7683 61.0094L68.3991 62.1672C68.7855 61.6229 69.1727 61.0795 69.5608 60.5368L67.9339 59.3735ZM65.6078 62.6498C65.2219 63.1973 64.8368 63.7457 64.4526 64.2947L66.0912 65.4414C66.4741 64.8942 66.8579 64.3478 67.2425 63.8021L65.6078 62.6498ZM63.3026 65.944C62.9202 66.4944 62.5387 67.0456 62.1582 67.5975L63.8047 68.7328C64.1839 68.1829 64.5641 67.6336 64.9452 67.085L63.3026 65.944ZM61.0194 69.2551C60.6407 69.8084 60.263 70.3623 59.8863 70.9169L61.5408 72.0407C61.9162 71.4881 62.2925 70.936 62.6699 70.3847L61.0194 69.2551ZM58.7592 72.5828C58.3845 73.1387 58.0108 73.6952 57.6382 74.2524L59.3006 75.3643C59.6719 74.8091 60.0443 74.2545 60.4176 73.7006L58.7592 72.5828ZM56.5234 75.9257C56.1529 76.4841 55.7834 77.043 55.4151 77.6026L57.0856 78.7023C57.4526 78.1448 57.8207 77.5879 58.1899 77.0315L56.5234 75.9257ZM54.3133 79.283C53.9472 79.8437 53.5821 80.4049 53.2183 80.9667L54.8969 82.054C55.2594 81.4943 55.6231 80.9351 55.9879 80.3765L54.3133 79.283ZM52.1301 82.6537C51.7685 83.2165 51.4082 83.7799 51.049 84.3438L52.7358 85.4183C53.0936 84.8566 53.4527 84.2953 53.8128 83.7346L52.1301 82.6537ZM49.9701 86.0448C49.6111 86.6132 49.2534 87.182 48.8969 87.7514L50.5921 88.8127C50.9471 88.2456 51.3035 87.6789 51.6611 87.1127L49.9701 86.0448ZM47.8313 89.4608C47.4774 90.0311 47.1248 90.6018 46.7735 91.173L48.477 92.2208C48.8269 91.6519 49.1782 91.0835 49.5307 90.5154L47.8313 89.4608ZM45.7235 92.8878C45.3749 93.4598 45.0275 94.0323 44.6816 94.6051L46.3936 95.639C46.7382 95.0685 47.084 94.4984 47.4313 93.9287L45.7235 92.8878ZM43.6479 96.3248C43.3047 96.8984 42.9629 97.4724 42.6225 98.0468L44.3431 99.0664C44.682 98.4945 45.0224 97.9229 45.3642 97.3516L43.6479 96.3248ZM41.6057 99.7709C41.2648 100.352 40.9254 100.933 40.5875 101.514L42.3168 102.519C42.6532 101.94 42.9911 101.362 43.3305 100.783L41.6057 99.7709ZM39.5762 103.263C39.2407 103.847 38.9066 104.43 38.5741 105.014L40.3122 106.004C40.6432 105.422 40.9757 104.841 41.3099 104.261L39.5762 103.263ZM37.5814 106.767C37.2521 107.351 36.9243 107.936 36.5982 108.521L38.3451 109.495C38.6697 108.913 38.996 108.331 39.3239 107.749L37.5814 106.767ZM35.6246 110.277C35.3018 110.863 34.9805 111.448 34.6609 112.034L36.4168 112.992C36.7349 112.409 37.0546 111.826 37.376 111.243L35.6246 110.277ZM33.7072 113.793C33.391 114.379 33.0765 114.966 32.7637 115.553L34.5286 116.493C34.8399 115.91 35.1529 115.326 35.4676 114.742L33.7072 113.793ZM31.814 117.345C31.4992 117.942 31.1862 118.54 30.8751 119.138L32.6492 120.061C32.9588 119.466 33.2702 118.872 33.5835 118.277L31.814 117.345ZM29.9472 120.932C29.6398 121.53 29.3343 122.128 29.0306 122.727L30.8141 123.632C31.1162 123.036 31.4202 122.441 31.726 121.846L29.9472 120.932ZM28.1253 124.522C27.8255 125.12 27.5276 125.719 27.2316 126.318L29.0245 127.204C29.3189 126.609 29.6152 126.013 29.9135 125.418L28.1253 124.522ZM26.3496 128.114C26.0576 128.713 25.7675 129.311 25.4795 129.91L27.2818 130.777C27.5683 130.182 27.8567 129.586 28.1472 128.991L26.3496 128.114ZM24.6147 131.721C24.3242 132.334 24.0357 132.946 23.7494 133.559L25.5614 134.406C25.8461 133.796 26.1329 133.187 26.4219 132.578L24.6147 131.721ZM22.8971 135.397C22.6151 136.01 22.3354 136.623 22.0579 137.235L23.8797 138.061C24.1556 137.452 24.4337 136.843 24.714 136.233L22.8971 135.397ZM21.2321 139.073C20.959 139.685 20.6883 140.298 20.4198 140.91L22.2514 141.713C22.5182 141.105 22.7874 140.496 23.0588 139.887L21.2321 139.073ZM19.6212 142.746C19.3573 143.358 19.0957 143.97 18.8365 144.582L20.678 145.362C20.9355 144.754 21.1955 144.146 21.4577 143.538L19.6212 142.746ZM18.0659 146.416C17.8051 147.043 17.5468 147.669 17.291 148.295L19.1425 149.052C19.3965 148.43 19.6532 147.808 19.9123 147.185L18.0659 146.416ZM16.5285 150.18C16.277 150.808 16.0279 151.436 15.7816 152.063L17.6432 152.794C17.8879 152.171 18.1352 151.547 18.3851 150.924L16.5285 150.18ZM15.0503 153.945C14.8091 154.572 14.5707 155.198 14.3348 155.825L16.2066 156.529C16.4407 155.907 16.6775 155.285 16.917 154.663L15.0503 153.945ZM13.6355 157.703C13.4051 158.328 13.1774 158.954 12.9524 159.579L14.8343 160.256C15.0576 159.636 15.2836 159.015 15.5123 158.394L13.6355 157.703ZM12.2859 161.453C12.0618 162.09 11.8407 162.727 11.6225 163.364L13.5144 164.012C13.7309 163.381 13.9504 162.749 14.1727 162.116L12.2859 161.453ZM10.9692 165.295C10.7544 165.938 10.5427 166.581 10.3341 167.223L12.2363 167.841C12.4432 167.204 12.6532 166.566 12.8662 165.928L10.9692 165.295ZM9.71746 169.149C9.51502 169.79 9.3157 170.431 9.11952 171.071L11.0318 171.657C11.2263 171.022 11.4239 170.387 11.6247 169.751L9.71746 169.149ZM8.54047 172.991C8.35063 173.63 8.16397 174.269 7.98054 174.907L9.90269 175.459C10.0845 174.827 10.2695 174.194 10.4577 173.56L8.54047 172.991ZM7.43995 176.819C7.25867 177.472 7.08081 178.124 6.90641 178.775L8.83833 179.292C9.0111 178.647 9.18733 178.001 9.36696 177.355L7.43995 176.819ZM6.38765 180.749C6.2183 181.407 6.05253 182.064 5.89039 182.72L7.83199 183.2C7.99254 182.55 8.15671 181.9 8.32444 181.248L6.38765 180.749ZM5.4149 184.686C5.26006 185.341 5.10888 185.995 4.96141 186.648L6.91229 187.088C7.05825 186.442 7.20789 185.795 7.36119 185.146L5.4149 184.686ZM4.53018 188.604C4.39018 189.256 4.25392 189.906 4.12146 190.556L6.08114 190.956C6.21218 190.313 6.34699 189.669 6.48553 189.025L4.53018 188.604ZM3.73548 192.503C3.6059 193.175 3.48045 193.847 3.35917 194.518L5.32726 194.873C5.44716 194.21 5.57121 193.546 5.69937 192.881L3.73548 192.503ZM3.00767 196.528C2.89471 197.197 2.78599 197.865 2.68154 198.533L4.65747 198.842C4.76067 198.183 4.86812 197.522 4.97977 196.861L3.00767 196.528ZM2.38107 200.531C2.28522 201.196 2.1937 201.86 2.10654 202.522L4.08947 202.783C4.17554 202.129 4.26593 201.473 4.36061 200.816L2.38107 200.531ZM1.85823 204.507C1.77987 205.168 1.70592 205.827 1.63643 206.485L3.62538 206.695C3.69395 206.046 3.76694 205.395 3.8443 204.743L1.85823 204.507ZM1.43737 208.5C1.37474 209.181 1.31697 209.861 1.26413 210.539L3.25808 210.694C3.3102 210.025 3.36718 209.355 3.42896 208.683L1.43737 208.5ZM1.1204 212.57C1.07744 213.245 1.03946 213.92 1.0065 214.592L3.0041 214.69C3.03658 214.027 3.07402 213.363 3.11637 212.697L1.1204 212.57ZM0.922742 216.606C0.899885 217.276 0.882104 217.944 0.869454 218.611L2.86909 218.649C2.88155 217.993 2.89906 217.334 2.92158 216.674L0.922742 216.606ZM0.846948 220.608C0.844576 221.282 0.847551 221.955 0.85593 222.626L2.85577 222.601C2.84753 221.94 2.8446 221.278 2.84694 220.615L0.846948 220.608ZM0.898414 224.671C0.918222 225.352 0.943696 226.03 0.974894 226.707L2.97277 226.615C2.9421 225.949 2.91705 225.282 2.89757 224.613L0.898414 224.671ZM1.08572 228.732C1.12843 229.405 1.17692 230.076 1.23126 230.746L3.2247 230.584C3.17133 229.926 3.12368 229.266 3.08171 228.605L1.08572 228.732ZM1.41185 232.748C1.47793 233.414 1.54991 234.078 1.62785 234.74L3.61413 234.506C3.53762 233.856 3.46696 233.204 3.40207 232.551L1.41185 232.748ZM1.88362 236.749C1.97608 237.424 2.07488 238.097 2.18008 238.768L4.15594 238.458C4.05276 237.8 3.95584 237.14 3.86513 236.477L1.88362 236.749ZM2.51496 240.774C2.63303 241.441 2.75757 242.105 2.88864 242.767L4.85058 242.379C4.72213 241.73 4.60006 241.079 4.4843 240.425L2.51496 240.774ZM3.30151 244.747C3.44571 245.405 3.5965 246.06 3.75395 246.713L5.69824 246.244C5.54405 245.605 5.39636 244.963 5.25511 244.319L3.30151 244.747ZM4.24633 248.665C4.41894 249.32 4.59841 249.973 4.78481 250.623L6.70737 250.072C6.52496 249.436 6.3493 248.797 6.18032 248.156L4.24633 248.665ZM5.3659 252.57C5.5666 253.216 5.7743 253.86 5.98909 254.501L7.88553 253.866C7.67546 253.239 7.47229 252.609 7.27595 251.977L5.3659 252.57ZM6.65476 256.417C6.88377 257.053 7.11993 257.687 7.36329 258.317L9.2292 257.597C8.9913 256.981 8.76042 256.362 8.53649 255.74L6.65476 256.417ZM8.11508 260.201C8.37254 260.826 8.63724 261.447 8.90925 262.066L10.7402 261.261C10.4744 260.656 10.2157 260.049 9.96404 259.439L8.11508 260.201ZM9.74282 263.904C10.028 264.514 10.3204 265.122 10.6202 265.726L12.4118 264.837C12.119 264.247 11.8333 263.654 11.5547 263.057L9.74282 263.904ZM11.5417 267.53C11.8562 268.129 12.1782 268.725 12.5077 269.317L14.2558 268.346C13.9339 267.767 13.6194 267.185 13.3121 266.6L11.5417 267.53ZM13.5185 271.087C13.863 271.673 14.215 272.257 14.5746 272.838L16.2749 271.785C15.9236 271.217 15.5798 270.647 15.2432 270.074L13.5185 271.087ZM15.6586 274.543C16.0224 275.101 16.3935 275.656 16.7718 276.209L18.4217 275.078C18.052 274.539 17.6894 273.996 17.3339 273.451L15.6586 274.543ZM17.9288 277.856C18.3217 278.402 18.722 278.945 19.1296 279.485L20.7259 278.28C20.3274 277.753 19.9362 277.222 19.5522 276.688L17.9288 277.856ZM20.3748 281.096C20.7972 281.63 21.2271 282.161 21.6645 282.688L23.2042 281.412C22.7765 280.896 22.3561 280.377 21.9431 279.855L20.3748 281.096ZM22.9991 284.261C23.4361 284.765 23.88 285.265 24.331 285.762L25.8125 284.419C25.3712 283.932 24.9369 283.443 24.5095 282.95L22.9991 284.261ZM25.6815 287.22C26.1385 287.703 26.6024 288.183 27.0732 288.66L28.4965 287.254C28.0355 286.787 27.5814 286.318 27.1341 285.845L25.6815 287.22ZM28.5065 290.081C28.9912 290.552 29.4829 291.02 29.9816 291.485L31.3451 290.021C30.8565 289.566 30.3748 289.108 29.9001 288.647L28.5065 290.081ZM31.4988 292.87C32.0116 293.328 32.5314 293.783 33.0583 294.236L34.3609 292.718C33.8442 292.275 33.3346 291.828 32.832 291.379L31.4988 292.87ZM34.6113 295.542C35.1143 295.957 35.6236 296.37 36.139 296.779L37.383 295.213C36.8772 294.811 36.3775 294.407 35.884 294L34.6113 295.542ZM37.704 297.999C38.232 298.403 38.7661 298.804 39.3066 299.202L40.4929 297.592C39.9621 297.201 39.4375 296.807 38.9192 296.411L37.704 297.999ZM40.9469 300.388C41.4999 300.781 42.0594 301.17 42.6251 301.557L43.7537 299.906C43.1975 299.526 42.6477 299.143 42.1043 298.757L40.9469 300.388ZM44.3416 302.708C44.9201 303.089 45.505 303.467 46.0964 303.842L47.1674 302.153C46.5856 301.784 46.0102 301.412 45.4413 301.038L44.3416 302.708ZM47.7908 304.898C48.3437 305.236 48.902 305.572 49.4659 305.905L50.4837 304.184C49.9286 303.855 49.3789 303.525 48.8347 303.192L47.7908 304.898ZM51.1737 306.898C51.7485 307.226 52.3287 307.552 52.9145 307.875L53.8806 306.124C53.3034 305.805 52.7318 305.484 52.1656 305.161L51.1737 306.898ZM54.6884 308.837C55.2852 309.155 55.8876 309.47 56.4955 309.783L57.4106 308.004C56.8111 307.696 56.2172 307.385 55.6289 307.072L54.6884 308.837ZM58.3361 310.713C58.9552 311.021 59.5799 311.326 60.2102 311.628L61.0751 309.825C60.453 309.527 59.8366 309.226 59.2259 308.922L58.3361 310.713ZM62.0902 312.514C62.672 312.784 63.2585 313.051 63.8496 313.316L64.6677 311.491C64.084 311.229 63.505 310.965 62.9306 310.699L62.0902 312.514ZM65.637 314.104C66.2375 314.365 66.8427 314.623 67.4526 314.879L68.2269 313.035C67.6242 312.782 67.0263 312.527 66.4331 312.269L65.637 314.104ZM69.2965 315.641C69.9159 315.892 70.54 316.142 71.1689 316.389L71.9002 314.527C71.2784 314.283 70.6614 314.036 70.0492 313.788L69.2965 315.641ZM73.0698 317.123C73.7083 317.366 74.3515 317.606 74.9995 317.844L75.6887 315.966C75.0476 315.731 74.4114 315.493 73.78 315.253L73.0698 317.123ZM76.958 318.55C77.6157 318.784 78.2782 319.015 78.9455 319.243L79.5937 317.351C78.9331 317.125 78.2774 316.896 77.6266 316.665L76.958 318.55ZM80.8053 319.87C81.4154 320.072 82.0295 320.273 82.6476 320.471L83.2591 318.567C82.647 318.371 82.0389 318.172 81.4349 317.972L80.8053 319.87ZM84.5137 321.061C85.1398 321.256 85.7698 321.448 86.4038 321.639L86.98 319.724C86.3518 319.535 85.7276 319.344 85.1075 319.151L84.5137 321.061ZM88.3181 322.206C88.9602 322.392 89.6063 322.577 90.2565 322.76L90.7981 320.835C90.1537 320.654 89.5133 320.47 88.8769 320.285L88.3181 322.206ZM92.2192 323.303C92.8775 323.482 93.5398 323.659 94.2063 323.834L94.7142 321.9C94.0533 321.726 93.3965 321.551 92.7439 321.373L92.2192 323.303ZM96.2178 324.353C96.8924 324.524 97.5711 324.693 98.2539 324.86L98.729 322.917C98.0516 322.752 97.3783 322.584 96.7092 322.414L96.2178 324.353ZM100.231 325.335C100.853 325.482 101.478 325.627 102.107 325.771L102.552 323.821C101.928 323.679 101.308 323.534 100.691 323.389L100.231 325.335ZM104.003 326.197C104.639 326.337 105.277 326.475 105.92 326.612L106.337 324.656C105.699 324.52 105.065 324.383 104.434 324.244L104.003 326.197ZM107.856 327.018C108.505 327.152 109.158 327.284 109.813 327.414L110.203 325.452C109.552 325.323 108.904 325.192 108.26 325.059L107.856 327.018ZM111.791 327.799C112.453 327.926 113.119 328.051 113.789 328.175L114.152 326.208C113.487 326.085 112.825 325.961 112.167 325.835L111.791 327.799ZM115.807 328.54C116.484 328.66 117.164 328.779 117.847 328.895L118.183 326.924C117.504 326.808 116.829 326.69 116.157 326.571L115.807 328.54ZM119.907 329.24C120.597 329.353 121.291 329.464 121.988 329.574L122.299 327.598C121.606 327.489 120.916 327.379 120.23 327.266L119.907 329.24ZM123.907 329.87C124.54 329.966 125.177 330.061 125.817 330.154L126.105 328.175C125.469 328.082 124.836 327.988 124.206 327.893L123.907 329.87ZM127.744 330.429C128.389 330.519 129.037 330.608 129.688 330.696L129.954 328.713C129.307 328.626 128.662 328.538 128.021 328.448L127.744 330.429ZM131.649 330.953C132.306 331.038 132.965 331.121 133.628 331.203L133.872 329.218C133.213 329.137 132.558 329.054 131.904 328.97L131.649 330.953ZM135.623 331.443C136.292 331.522 136.963 331.599 137.637 331.675L137.86 329.688C137.19 329.612 136.522 329.535 135.857 329.457L135.623 331.443ZM139.667 331.898C140.347 331.971 141.029 332.043 141.715 332.113L141.918 330.123C141.236 330.053 140.557 329.982 139.88 329.91L139.667 331.898ZM143.78 332.318C144.472 332.385 145.166 332.451 145.863 332.515L146.046 330.523C145.352 330.46 144.661 330.394 143.973 330.328L143.78 332.318ZM147.948 332.701C148.583 332.756 149.22 332.81 149.86 332.863L150.024 330.87C149.388 330.817 148.753 330.764 148.121 330.709L147.948 332.701ZM151.786 333.018C152.43 333.068 153.077 333.117 153.726 333.165L153.873 331.17C153.227 331.123 152.583 331.074 151.942 331.024L151.786 333.018ZM155.681 333.305C156.336 333.35 156.992 333.394 157.651 333.437L157.781 331.441C157.125 331.399 156.471 331.355 155.82 331.309L155.681 333.305ZM159.635 333.562C160.299 333.603 160.965 333.642 161.634 333.68L161.747 331.683C161.081 331.645 160.418 331.606 159.757 331.566L159.635 333.562ZM163.647 333.79C164.321 333.825 164.997 333.859 165.676 333.892L165.772 331.895C165.097 331.862 164.423 331.828 163.752 331.792L163.647 333.79ZM167.718 333.987C168.402 334.018 169.088 334.047 169.776 334.075L169.857 332.076C169.171 332.048 168.488 332.019 167.807 331.989L167.718 333.987ZM171.848 334.154C172.542 334.18 173.238 334.204 173.936 334.227L174.001 332.228C173.305 332.205 172.612 332.181 171.922 332.156L171.848 334.154ZM176.038 334.291C176.681 334.31 177.327 334.327 177.974 334.343L178.025 332.344C177.38 332.328 176.736 332.31 176.095 332.292L176.038 334.291ZM179.903 334.389C180.548 334.403 181.195 334.416 181.845 334.428L181.881 332.428C181.235 332.416 180.59 332.403 179.947 332.389L179.903 334.389ZM183.798 334.461C184.452 334.471 185.107 334.479 185.764 334.487L185.788 332.487C185.133 332.479 184.479 332.471 183.828 332.461L183.798 334.461ZM187.743 334.507C188.404 334.513 189.068 334.517 189.734 334.52L189.744 332.521C189.08 332.517 188.419 332.513 187.76 332.507L187.743 334.507ZM191.737 334.528C192.407 334.529 193.079 334.529 193.753 334.528L193.75 332.528C193.078 332.529 192.408 332.529 191.741 332.528L191.737 334.528ZM195.781 334.522C196.459 334.519 197.139 334.515 197.822 334.51L197.806 332.51C197.126 332.515 196.448 332.519 195.772 332.522L195.781 334.522ZM199.875 334.491C200.562 334.484 201.25 334.475 201.941 334.465L201.913 332.466C201.225 332.475 200.538 332.484 199.854 332.491L199.875 334.491ZM204.02 334.433C204.715 334.422 205.412 334.409 206.111 334.395L206.071 332.395C205.374 332.409 204.679 332.422 203.986 332.434L204.02 334.433ZM208.167 334.351C208.806 334.336 209.447 334.32 210.089 334.304L210.038 332.305C209.397 332.321 208.758 332.337 208.121 332.351L208.167 334.351ZM212.022 334.252C212.668 334.233 213.316 334.214 213.966 334.194L213.904 332.195C213.256 332.215 212.61 332.234 211.966 332.252L212.022 334.252ZM215.92 334.131C216.573 334.109 217.228 334.086 217.885 334.062L217.812 332.063C217.157 332.087 216.504 332.11 215.853 332.132L215.92 334.131ZM219.86 333.988C220.521 333.962 221.183 333.935 221.846 333.908L221.763 331.909C221.101 331.937 220.441 331.963 219.782 331.989L219.86 333.988ZM223.843 333.822C224.51 333.793 225.179 333.762 225.85 333.731L225.757 331.733C225.088 331.764 224.42 331.795 223.755 331.824L223.843 333.822ZM227.868 333.634C228.543 333.601 229.219 333.567 229.897 333.532L229.794 331.535C229.117 331.57 228.443 331.604 227.77 331.637L227.868 333.634ZM231.937 333.424C232.618 333.387 233.302 333.349 233.987 333.31L233.874 331.313C233.19 331.352 232.508 331.39 231.828 331.427L231.937 333.424ZM236.048 333.191C236.737 333.15 237.427 333.108 238.12 333.066L237.997 331.07C237.306 331.112 236.617 331.154 235.93 331.194L236.048 333.191ZM240.202 332.935C240.897 332.891 241.593 332.845 242.291 332.799L242.159 330.803C241.462 330.849 240.767 330.895 240.074 330.939L240.202 332.935ZM244.21 332.669C244.851 332.625 245.493 332.581 246.137 332.535L245.996 330.54C245.354 330.586 244.712 330.63 244.073 330.674L244.21 332.669ZM248.074 332.396C248.721 332.349 249.37 332.301 250.02 332.252L249.87 330.258C249.222 330.306 248.574 330.354 247.929 330.401L248.074 332.396ZM251.975 332.103C252.628 332.053 253.283 332.002 253.939 331.95L253.781 329.956C253.126 330.008 252.473 330.059 251.821 330.109L251.975 332.103ZM255.912 331.792C256.571 331.738 257.232 331.684 257.894 331.628L257.728 329.635C257.067 329.69 256.408 329.745 255.75 329.798L255.912 331.792ZM259.886 331.46C260.551 331.403 261.218 331.346 261.887 331.287L261.712 329.295C261.045 329.353 260.38 329.411 259.716 329.467L259.886 331.46ZM263.897 331.109C264.568 331.049 265.241 330.988 265.916 330.926L265.733 328.935C265.06 328.996 264.388 329.057 263.718 329.117L263.897 331.109ZM267.944 330.739C268.622 330.675 269.301 330.611 269.982 330.546L269.791 328.555C269.112 328.62 268.434 328.684 267.758 328.747L267.944 330.739ZM272.029 330.349C272.712 330.282 273.398 330.214 274.085 330.146L273.887 328.156C273.201 328.224 272.517 328.291 271.834 328.358L272.029 330.349ZM276.15 329.938C276.84 329.868 277.532 329.798 278.225 329.726L278.019 327.737C277.327 327.808 276.637 327.879 275.948 327.949L276.15 329.938ZM280.285 329.511C280.922 329.444 281.561 329.376 282.2 329.308L281.988 327.319C281.349 327.387 280.711 327.455 280.075 327.522L280.285 329.511ZM284.124 329.1C284.766 329.03 285.41 328.96 286.055 328.888L285.835 326.9C285.191 326.971 284.549 327.042 283.908 327.112L284.124 329.1ZM287.994 328.672C288.642 328.599 289.291 328.526 289.941 328.452L289.715 326.465C289.066 326.539 288.418 326.612 287.771 326.685L287.994 328.672ZM291.896 328.227C292.549 328.152 293.203 328.076 293.859 327.999L293.626 326.012C292.971 326.089 292.318 326.165 291.666 326.241L291.896 328.227ZM295.83 327.766C296.488 327.687 297.148 327.608 297.809 327.528L297.569 325.543C296.909 325.623 296.251 325.702 295.593 325.78L295.83 327.766ZM299.795 327.287C300.459 327.206 301.124 327.124 301.79 327.041L301.544 325.056C300.878 325.139 300.215 325.221 299.552 325.302L299.795 327.287ZM303.792 326.791C304.461 326.707 305.131 326.622 305.803 326.537L305.55 324.553C304.88 324.638 304.211 324.723 303.543 324.807L303.792 326.791ZM307.822 326.278C308.496 326.191 309.171 326.103 309.848 326.015L309.589 324.032C308.913 324.12 308.239 324.208 307.566 324.294L307.822 326.278ZM311.883 325.748C312.562 325.658 313.243 325.567 313.925 325.476L313.66 323.493C312.979 323.585 312.299 323.675 311.621 323.765L311.883 325.748ZM315.976 325.2C316.661 325.107 317.347 325.014 318.035 324.919L317.763 322.938C317.077 323.032 316.391 323.125 315.708 323.218L315.976 325.2Z" fill="#BABABA"/>
</svg>
