<svg width="138" height="119" viewBox="0 0 138 119" fill="none" xmlns="http://www.w3.org/2000/svg">
<path d="M6.04931 118.976L0.298048 108.963L11.845 108.988L6.04931 118.976ZM136.295 16.8038C135.986 16.6521 135.678 16.5018 135.37 16.3527L136.242 14.5528C136.553 14.7034 136.864 14.8552 137.176 15.0083L136.295 16.8038ZM133.533 15.4744C132.923 15.1868 132.316 14.9045 131.712 14.6273L132.546 12.8095C133.157 13.0896 133.77 13.3749 134.386 13.6655L133.533 15.4744ZM129.909 13.8114C129.31 13.5445 128.714 13.2829 128.121 13.0263L128.915 11.1907C129.515 11.4503 130.118 11.7149 130.723 11.9847L129.909 13.8114ZM126.319 12.2585C125.687 11.9936 125.058 11.7345 124.433 11.4812L125.183 9.62739C125.816 9.88378 126.453 10.146 127.092 10.4141L126.319 12.2585ZM122.565 10.7387C121.946 10.497 121.33 10.261 120.717 10.0308L121.42 8.1585C122.041 8.39181 122.665 8.63083 123.292 8.87563L122.565 10.7387ZM118.887 9.35699C118.265 9.13242 117.646 8.9138 117.03 8.70106L117.683 6.81068C118.307 7.02642 118.935 7.24808 119.566 7.47571L118.887 9.35699ZM115.104 8.05151C114.466 7.84141 113.831 7.63772 113.2 7.44037L113.797 5.53154C114.438 5.73189 115.082 5.93862 115.73 6.15179L115.104 8.05151ZM111.318 6.86726C110.694 6.68252 110.073 6.50405 109.457 6.3318L109.995 4.40549C110.621 4.58057 111.252 4.7619 111.886 4.94956L111.318 6.86726ZM107.51 5.8058C106.856 5.63495 106.207 5.47117 105.561 5.31438L106.032 3.37082C106.69 3.53037 107.351 3.69699 108.016 3.87074L107.51 5.8058ZM103.635 4.8649C102.997 4.72202 102.363 4.58604 101.733 4.45689L102.135 2.49765C102.777 2.62925 103.423 2.76777 104.072 2.91327L103.635 4.8649ZM99.7833 4.07646C99.1181 3.95335 98.4575 3.83796 97.8013 3.73019L98.1255 1.75663C98.795 1.86661 99.469 1.98432 100.147 2.10986L99.7833 4.07646ZM95.8464 3.42968C95.1993 3.33707 94.5566 3.25198 93.9184 3.17433L94.16 1.18897C94.8123 1.26834 95.4688 1.35527 96.1297 1.44985L95.8464 3.42968ZM91.9442 2.95627C91.274 2.88984 90.6088 2.83173 89.9486 2.78182L90.0994 0.787511C90.7752 0.838607 91.4559 0.898074 92.1414 0.966018L91.9442 2.95627ZM87.983 2.65655C87.3327 2.62292 86.6875 2.59735 86.0471 2.57975L86.1021 0.580506C86.7587 0.598557 87.4201 0.62476 88.0863 0.659225L87.983 2.65655ZM84.0426 2.55047C83.3751 2.54941 82.713 2.55715 82.0563 2.57354L82.0064 0.574164C82.6809 0.55733 83.3607 0.549389 84.0458 0.550472L84.0426 2.55047ZM80.1027 2.64852C79.4447 2.68271 78.7923 2.72572 78.1454 2.77743L77.9861 0.783787C78.6515 0.730593 79.3225 0.686357 79.9989 0.651216L80.1027 2.64852ZM76.1592 2.96524C75.503 3.037 74.8527 3.11785 74.2082 3.20765L73.9322 1.22678C74.5963 1.13426 75.2661 1.05098 75.9418 0.977092L76.1592 2.96524ZM72.2898 3.50406C71.6293 3.61628 70.9751 3.73806 70.3271 3.86921L69.9303 1.90895C70.599 1.77363 71.2738 1.64802 71.9549 1.53231L72.2898 3.50406ZM68.4016 4.29062C67.7659 4.44034 67.1364 4.59927 66.5129 4.76721L65.9927 2.83604C66.6367 2.66258 67.2868 2.49847 67.943 2.34389L68.4016 4.29062ZM64.6086 5.31379C63.9767 5.50647 63.3512 5.70861 62.732 5.92L62.0858 4.02728C62.7258 3.80877 63.3723 3.59985 64.0253 3.40074L64.6086 5.31379ZM60.8936 6.58175C60.276 6.81568 59.6649 7.05901 59.0603 7.31153L58.2895 5.46602C58.9148 5.20489 59.5466 4.95328 60.1852 4.71142L60.8936 6.58175ZM57.2545 8.10161C56.6591 8.37415 56.0701 8.6558 55.4875 8.94635L54.5949 7.15658C55.1973 6.85614 55.8064 6.56489 56.4221 6.28305L57.2545 8.10161ZM53.7392 9.85509C53.1605 10.1683 52.5883 10.4905 52.0226 10.8215L51.0127 9.09514C51.5975 8.75307 52.189 8.42 52.7873 8.09618L53.7392 9.85509ZM50.3446 11.8404C49.7885 12.1907 49.2388 12.5497 48.6954 12.9171L47.5751 11.2603C48.1362 10.8809 48.7041 10.5101 49.2787 10.1481L50.3446 11.8404ZM47.0816 14.0466C46.55 14.4314 46.0248 14.8244 45.5058 15.2256L44.2827 13.6431C44.8181 13.2293 45.3601 12.8237 45.9088 12.4265L47.0816 14.0466ZM43.9663 16.4539C43.4593 16.8713 42.9585 17.2965 42.4639 17.7294L41.1467 16.2244C41.6563 15.7784 42.1724 15.3402 42.6951 14.9098L43.9663 16.4539ZM40.9983 19.0508C40.5177 19.4971 40.0431 19.9508 39.5744 20.4116L38.1722 18.9855C38.6542 18.5115 39.1426 18.0446 39.6375 17.5852L40.9983 19.0508ZM38.1872 21.8144C37.7308 22.289 37.2802 22.7705 36.8356 23.2588L35.3569 21.912C35.8136 21.4106 36.2765 20.9159 36.7457 20.428L38.1872 21.8144ZM35.5282 24.7327C35.0985 25.2301 34.6745 25.7339 34.2561 26.2439L32.7099 24.9754C33.1388 24.4525 33.5738 23.9357 34.0148 23.4252L35.5282 24.7327ZM33.0181 27.792C32.6148 28.3093 32.217 28.8324 31.8246 29.3611L30.2185 28.1693C30.6202 27.628 31.0276 27.0922 31.4408 26.5622L33.0181 27.792ZM30.6646 30.9629C30.2834 31.5023 29.9076 32.0471 29.5371 32.5971L27.8783 31.4797C28.257 30.9175 28.6414 30.3604 29.0314 29.8085L30.6646 30.9629ZM28.4523 34.2457C28.0962 34.7998 27.7453 35.3587 27.3996 35.9223L25.6948 34.8765C26.0478 34.3012 26.4061 33.7304 26.7699 33.1644L28.4523 34.2457ZM26.3776 37.627C26.0451 38.1943 25.7177 38.7661 25.3952 39.342L23.6502 38.3648C23.9789 37.7777 24.3128 37.1947 24.6519 36.6159L26.3776 37.627ZM24.4436 41.0799C24.1313 41.6633 23.8239 42.2506 23.5213 42.8417L21.741 41.9302C22.0491 41.3284 22.3622 40.7303 22.6804 40.136L24.4436 41.0799ZM22.6347 44.612C22.3444 45.2046 22.0588 45.8007 21.7778 46.4002L19.9669 45.5513C20.2527 44.9417 20.5432 44.3353 20.8386 43.7322L22.6347 44.612ZM20.9488 48.2081C20.6786 48.8105 20.4129 49.416 20.1517 50.0243L18.3139 49.2353C18.5793 48.6172 18.8493 48.0019 19.124 47.3895L20.9488 48.2081ZM19.3832 51.8537C19.1314 52.4662 18.8841 53.0814 18.6412 53.699L16.78 52.9669C17.0266 52.34 17.2777 51.7154 17.5333 51.0934L19.3832 51.8537ZM17.9277 55.5531C17.6947 56.172 17.466 56.7932 17.2415 57.4165L15.3598 56.7387C15.5875 56.1066 15.8195 55.4765 16.0559 54.8485L17.9277 55.5531ZM16.5807 59.2922C16.3648 59.9187 16.1532 60.547 15.9456 61.1769L14.0461 60.5511C14.2564 59.9127 14.4709 59.2758 14.6897 58.6408L16.5807 59.2922ZM15.3363 63.0688C15.1372 63.701 14.9422 64.3346 14.7512 64.9696L12.836 64.3935C13.0294 63.7504 13.2269 63.1086 13.4286 62.4681L15.3363 63.0688ZM14.1902 66.8783C14.0071 67.516 13.8279 68.1547 13.6527 68.7944L11.7238 68.266C11.9011 67.6186 12.0825 66.9719 12.2679 66.3263L14.1902 66.8783ZM13.1387 70.716C12.9712 71.3576 12.8076 72 12.6477 72.6429L10.7068 72.1604C10.8685 71.51 11.0341 70.86 11.2036 70.2107L13.1387 70.716ZM12.178 74.5799C12.0253 75.226 11.8764 75.8724 11.7312 76.519L9.77977 76.0807C9.92659 75.4269 10.0772 74.7732 10.2317 74.1198L12.178 74.5799ZM11.3068 78.4589C11.1679 79.1108 11.0329 79.7627 10.9015 80.4142L8.94094 80.019C9.07374 79.3603 9.2103 78.7013 9.35067 78.0423L11.3068 78.4589ZM10.5184 82.3681C10.3944 83.019 10.2741 83.6695 10.1573 84.3194L8.18883 83.9658C8.3068 83.3091 8.42843 82.6517 8.55376 81.9938L10.5184 82.3681ZM9.81423 86.2882C9.70337 86.9446 9.59615 87.6001 9.49251 88.2546L7.51712 87.9418C7.62182 87.2806 7.73015 86.6183 7.84216 85.9551L9.81423 86.2882ZM9.19232 90.2147C9.09447 90.8759 9.00026 91.5358 8.90961 92.1942L6.9283 91.9215C7.01985 91.2564 7.11503 90.5898 7.21387 89.9219L9.19232 90.2147ZM8.64758 94.1709C8.56379 94.8281 8.48355 95.4836 8.40679 96.1371L6.42044 95.9039C6.49797 95.2438 6.57901 94.5818 6.66363 93.918L8.64758 94.1709ZM8.18324 98.1259C8.11197 98.7897 8.04427 99.4512 7.9801 100.11L5.98951 99.9164C6.05432 99.2508 6.12269 98.5827 6.19467 97.9124L8.18324 98.1259ZM7.79807 102.08C7.73955 102.749 7.68464 103.415 7.6333 104.078L5.63927 103.923C5.69113 103.254 5.74658 102.581 5.80568 101.905L7.79807 102.08ZM7.48924 106.066C7.44477 106.726 7.40382 107.382 7.36632 108.035L5.36961 107.92C5.40749 107.261 5.44885 106.598 5.49378 105.932L7.48924 106.066ZM7.26112 110.044C7.22964 110.711 7.20178 111.374 7.17747 112.032L5.17883 111.958C5.2034 111.293 5.23154 110.624 5.26334 109.95L7.26112 110.044ZM7.11473 114.007C7.09677 114.683 7.08258 115.354 7.07207 116.019L5.07232 115.987C5.08294 115.315 5.09729 114.637 5.11544 113.954L7.11473 114.007Z" fill="#BABABA"/>
</svg>
