<svg width="30" height="30" viewBox="0 0 30 30" fill="none" xmlns="http://www.w3.org/2000/svg">
<path d="M15.0001 0.600098C12.1521 0.600098 9.36796 1.44464 6.99989 3.02694C4.63182 4.60923 2.78614 6.8582 1.69624 9.48946C0.606337 12.1207 0.321169 15.0161 0.876796 17.8094C1.43242 20.6027 2.80389 23.1686 4.81777 25.1824C6.83164 27.1963 9.39748 28.5678 12.1908 29.1234C14.9841 29.679 17.8795 29.3939 20.5107 28.304C23.142 27.2141 25.391 25.3684 26.9733 23.0003C28.5556 20.6322 29.4001 17.8481 29.4001 15.0001C29.4001 11.181 27.883 7.51828 25.1824 4.81776C22.4819 2.11724 18.8192 0.600098 15.0001 0.600098ZM15.0001 28.2001C12.3894 28.2001 9.83731 27.4259 7.66658 25.9755C5.49585 24.5251 3.80397 22.4635 2.80489 20.0515C1.80582 17.6395 1.54441 14.9855 2.05374 12.4249C2.56306 9.86436 3.82024 7.51234 5.6663 5.66629C7.51235 3.82024 9.86436 2.56306 12.4249 2.05373C14.9855 1.54441 17.6395 1.80581 20.0515 2.80489C22.4635 3.80396 24.5251 5.49584 25.9755 7.66657C27.4259 9.8373 28.2001 12.3894 28.2001 15.0001C28.2001 18.501 26.8094 21.8584 24.3339 24.3339C21.8584 26.8094 18.501 28.2001 15.0001 28.2001Z" fill="#323232"/>
<path d="M16.8613 14.5224L16.9568 14.8998H17.346H23.706C23.7326 14.8998 23.758 14.9103 23.7767 14.9291C23.7955 14.9478 23.806 14.9733 23.806 14.9998C23.806 15.0263 23.7955 15.0517 23.7767 15.0705C23.758 15.0892 23.7326 15.0998 23.706 15.0998H17.34H16.9576L16.8575 15.4688C16.7702 15.7904 16.6 16.0834 16.3638 16.3183C16.1276 16.5533 15.8337 16.722 15.5117 16.8076C15.1897 16.8931 14.8509 16.8925 14.5292 16.8058C14.2075 16.7191 13.9143 16.5493 13.6789 16.3134L13.325 16.6666L13.6789 16.3134C13.4436 16.0776 13.2744 15.784 13.1883 15.4622C13.1022 15.1403 13.1023 14.8015 13.1885 14.4796C13.2747 14.1578 13.444 13.8643 13.6795 13.6286C13.915 13.3929 14.2083 13.2232 14.53 13.1366L14.9 13.037V12.6538V5.17178C14.9 5.14525 14.9106 5.11982 14.9293 5.10107L14.6247 4.79647L14.9293 5.10107C14.9481 5.08231 14.9735 5.07178 15 5.07178C15.0266 5.07178 15.052 5.08231 15.0707 5.10107C15.0895 5.11982 15.1 5.14526 15.1 5.17178V12.6598V13.0504L15.4791 13.1449C15.8125 13.2281 16.1171 13.4001 16.3605 13.6427C16.6039 13.8852 16.777 14.1893 16.8613 14.5224ZM13.8765 16.1388C14.0479 16.3394 14.2616 16.4966 14.5 16.6006V16.7538H15C15.4581 16.7538 15.8973 16.5718 16.2212 16.248C16.5451 15.9241 16.727 15.4848 16.727 15.0268C16.727 14.5687 16.5451 14.1295 16.2212 13.8056C15.8973 13.4817 15.4581 13.2998 15 13.2998H14.9609L14.9222 13.3059C14.5151 13.37 14.1442 13.5774 13.8765 13.8907C13.6087 14.204 13.4615 14.6026 13.4615 15.0148C13.4615 15.4269 13.6087 15.8255 13.8765 16.1388Z" stroke="#323232"/>
</svg>
