<svg width="30" height="30" viewBox="0 0 30 30" fill="none" xmlns="http://www.w3.org/2000/svg">
<g clip-path="url(#clip0_61_228)">
<path d="M27.3587 7.46038C27.3034 7.38633 27.2342 7.32389 27.1548 7.27662C27.0754 7.22936 26.9875 7.1982 26.8961 7.18492C26.8047 7.17165 26.7116 7.17651 26.622 7.19925C26.5325 7.22198 26.4483 7.26213 26.3743 7.31741L15.0329 15.783C14.9923 15.8135 14.943 15.8299 14.8923 15.8299C14.8416 15.8299 14.7922 15.8135 14.7516 15.783L3.63289 7.27991C3.55948 7.22389 3.47576 7.18288 3.3865 7.15922C3.29725 7.13556 3.2042 7.12971 3.11269 7.142C3.02117 7.1543 2.93297 7.1845 2.85313 7.23089C2.77328 7.27727 2.70336 7.33892 2.64734 7.41233C2.59132 7.48574 2.55031 7.56946 2.52665 7.65871C2.50299 7.74797 2.49714 7.84101 2.50944 7.93253C2.52173 8.02404 2.55193 8.11224 2.59832 8.19209C2.6447 8.27193 2.70635 8.34186 2.77976 8.39788L11.5219 15.0846L2.87585 21.6002C2.80137 21.6558 2.73856 21.7255 2.691 21.8053C2.64345 21.8851 2.61208 21.9735 2.5987 22.0655C2.58532 22.1574 2.59017 22.2511 2.613 22.3412C2.63582 22.4313 2.67616 22.516 2.73171 22.5905C2.78727 22.6649 2.85695 22.7277 2.93678 22.7753C3.01661 22.8229 3.10503 22.8542 3.19698 22.8676C3.28893 22.881 3.38262 22.8761 3.47269 22.8533C3.56277 22.8305 3.64746 22.7901 3.72195 22.7346L12.6821 15.9705L13.8962 16.908C14.1793 17.1247 14.5252 17.2433 14.8817 17.2458C15.2382 17.2484 15.5858 17.1347 15.872 16.9221L17.147 15.9705L26.2126 22.7346C26.2866 22.7898 26.3708 22.83 26.4603 22.8527C26.5498 22.8754 26.643 22.8803 26.7344 22.867C26.8258 22.8537 26.9137 22.8226 26.993 22.7753C27.0724 22.7281 27.1417 22.6656 27.197 22.5916C27.2522 22.5176 27.2923 22.4334 27.315 22.3439C27.3378 22.2544 27.3426 22.1612 27.3293 22.0698C27.3161 21.9784 27.2849 21.8905 27.2377 21.8112C27.1904 21.7318 27.128 21.6625 27.054 21.6072L18.3212 15.0822L27.2157 8.43772C27.3632 8.32632 27.4609 8.1613 27.4877 7.97838C27.5145 7.79546 27.4681 7.60937 27.3587 7.46038Z" fill="#323232"/>
<path d="M26.4844 4.45312H3.51562C2.58322 4.45312 1.68901 4.82352 1.0297 5.48283C0.370395 6.14214 0 7.03635 0 7.96875L0 22.0312C0 22.9637 0.370395 23.8579 1.0297 24.5172C1.68901 25.1765 2.58322 25.5469 3.51562 25.5469H26.4844C27.4168 25.5469 28.311 25.1765 28.9703 24.5172C29.6296 23.8579 30 22.9637 30 22.0312V7.96875C30 7.03635 29.6296 6.14214 28.9703 5.48283C28.311 4.82352 27.4168 4.45312 26.4844 4.45312ZM28.5938 22.0312C28.5938 22.5907 28.3715 23.1272 27.9759 23.5228C27.5803 23.9184 27.0438 24.1406 26.4844 24.1406H3.51562C2.95618 24.1406 2.41966 23.9184 2.02407 23.5228C1.62849 23.1272 1.40625 22.5907 1.40625 22.0312V7.96875C1.40625 7.40931 1.62849 6.87278 2.02407 6.4772C2.41966 6.08161 2.95618 5.85938 3.51562 5.85938H26.4844C27.0438 5.85938 27.5803 6.08161 27.9759 6.4772C28.3715 6.87278 28.5938 7.40931 28.5938 7.96875V22.0312Z" fill="#323232"/>
</g>
<defs>
<clipPath id="clip0_61_228">
<rect width="30" height="30" fill="white"/>
</clipPath>
</defs>
</svg>
