<svg width="30" height="30" viewBox="0 0 30 30" fill="none" xmlns="http://www.w3.org/2000/svg">
<path d="M15.0001 29.9999C14.7876 30.0009 14.5771 29.96 14.3804 29.8795C14.1837 29.7991 14.0049 29.6807 13.854 29.5311L6.14775 21.8249C4.93101 20.6148 3.96787 19.1742 3.31471 17.5874C2.66155 16.0006 2.33148 14.2994 2.34384 12.5835C2.3386 10.9221 2.66487 9.27636 3.30355 7.74264C3.94223 6.20892 4.88048 4.81804 6.06337 3.65143C8.45241 1.31714 11.66 0.0102539 15.0001 0.0102539C18.3402 0.0102539 21.5478 1.31714 23.9368 3.65143C25.1197 4.81804 26.0579 6.20892 26.6966 7.74264C27.3353 9.27636 27.6616 10.9221 27.6563 12.5835C27.6687 14.2994 27.3386 16.0006 26.6855 17.5874C26.0323 19.1742 25.0692 20.6148 23.8524 21.8249L16.1462 29.5171C15.9965 29.6692 15.8181 29.7902 15.6214 29.873C15.4247 29.9559 15.2135 29.999 15.0001 29.9999ZM15.0001 1.40612C12.0261 1.39927 9.16936 2.5657 7.05009 4.65221C6.00018 5.68878 5.16755 6.92434 4.60092 8.28659C4.03428 9.64884 3.74503 11.1104 3.75009 12.5858C3.73884 14.1163 4.03298 15.6336 4.61532 17.049C5.19765 18.4644 6.05646 19.7494 7.1415 20.8288L14.8454 28.521C14.8653 28.5416 14.8891 28.558 14.9155 28.5692C14.9419 28.5804 14.9703 28.5862 14.9989 28.5862C15.0276 28.5862 15.0559 28.5804 15.0823 28.5692C15.1087 28.558 15.1325 28.5416 15.1524 28.521L22.8587 20.8288C23.9437 19.7494 24.8025 18.4644 25.3849 17.049C25.9672 15.6336 26.2613 14.1163 26.2501 12.5858C26.2551 11.1104 25.9659 9.64884 25.3993 8.28659C24.8326 6.92434 24 5.68878 22.9501 4.65221C20.8308 2.5657 17.9741 1.39927 15.0001 1.40612Z" fill="#323232"/>
<path d="M15 19.0806C13.5228 19.0799 12.0915 18.5671 10.9499 17.6297C9.80824 16.6922 9.02687 15.388 8.73884 13.9392C8.4508 12.4903 8.67391 10.9864 9.37017 9.68358C10.0664 8.38074 11.1928 7.35955 12.5574 6.7939C13.922 6.22826 15.4405 6.15314 16.8543 6.58134C18.2681 7.00955 19.4897 7.91459 20.3112 9.14234C21.1326 10.3701 21.5031 11.8446 21.3594 13.3148C21.2158 14.7851 20.567 16.16 19.5234 17.2056C18.93 17.8005 18.2249 18.2724 17.4487 18.5942C16.6724 18.9159 15.8403 19.0812 15 19.0806ZM15 7.71572C13.8474 7.71756 12.7312 8.11888 11.8413 8.85135C10.9514 9.58381 10.343 10.6021 10.1196 11.7328C9.8962 12.8635 10.0717 14.0367 10.6162 15.0525C11.1607 16.0684 12.0405 16.864 13.1058 17.304C14.1711 17.744 15.3559 17.801 16.4586 17.4655C17.5612 17.13 18.5134 16.4226 19.153 15.4638C19.7926 14.505 20.0801 13.3541 19.9664 12.2072C19.8528 11.0602 19.345 9.98814 18.5297 9.17354C18.0662 8.71028 17.5158 8.34304 16.9101 8.09288C16.3044 7.84272 15.6553 7.71455 15 7.71572Z" fill="#323232"/>
</svg>
