<svg width="30" height="30" viewBox="0 0 30 30" fill="none" xmlns="http://www.w3.org/2000/svg">
<path d="M20.4335 26.3705C19.5169 26.3637 18.6043 26.2487 17.7148 26.0278C14.6427 25.2865 11.4792 23.4063 8.80851 20.7332C6.13781 18.0602 4.2552 14.8961 3.51398 11.827C2.73352 8.59845 3.29016 5.83634 5.07961 4.04689L5.59055 3.53595C6.05412 3.07331 6.68229 2.81348 7.33723 2.81348C7.99216 2.81348 8.62033 3.07331 9.0839 3.53595L12.02 6.4715C12.483 6.93492 12.743 7.56315 12.743 8.21818C12.743 8.8732 12.483 9.50144 12.02 9.96486L10.2857 11.6986C11.1171 13.1576 12.248 14.6178 13.5845 15.9543C14.921 17.2908 16.3823 18.4223 17.8407 19.2537L19.5745 17.5194C19.8039 17.2899 20.0762 17.1079 20.3759 16.9837C20.6756 16.8596 20.9968 16.7957 21.3212 16.7957C21.6456 16.7957 21.9668 16.8596 22.2665 16.9837C22.5662 17.1079 22.8385 17.2899 23.0679 17.5194L26.0034 20.4549C26.4665 20.9181 26.7266 21.5463 26.7266 22.2013C26.7266 22.8563 26.4665 23.4844 26.0034 23.9477L25.4919 24.4586C24.2304 25.7225 22.4843 26.3705 20.4335 26.3705ZM7.33723 4.57013C7.24367 4.56967 7.15097 4.58788 7.06454 4.62369C6.97811 4.65951 6.8997 4.71222 6.8339 4.77872L6.32238 5.28966C4.98234 6.6297 4.59094 8.80529 5.22023 11.4121C5.88644 14.1736 7.60148 17.043 10.0489 19.4899C12.4964 21.9367 15.3652 23.65 18.1273 24.3186C20.7347 24.9479 22.9091 24.5565 24.2491 23.2164L24.7601 22.7055C24.8936 22.5719 24.9686 22.3907 24.9686 22.2019C24.9686 22.013 24.8936 21.8319 24.7601 21.6983L21.8251 18.7627C21.6915 18.6292 21.5104 18.5542 21.3215 18.5542C21.1326 18.5542 20.9515 18.6292 20.8179 18.7627L18.62 20.9606C18.4882 21.0925 18.3177 21.1791 18.1334 21.2077C17.949 21.2364 17.7604 21.2056 17.5946 21.1199C15.7929 20.1883 13.9765 18.8319 12.3417 17.1971C10.707 15.5623 9.35344 13.7471 8.41945 11.9453C8.33368 11.7797 8.30284 11.591 8.33138 11.4067C8.35993 11.2224 8.44638 11.0519 8.57824 10.9199L10.7767 8.72208C10.9102 8.58848 10.9852 8.40734 10.9852 8.21847C10.9852 8.0296 10.9102 7.84846 10.7767 7.71486L7.84113 4.77872C7.77513 4.71233 7.69659 4.65971 7.61009 4.6239C7.52359 4.58809 7.43084 4.56982 7.33723 4.57013V4.57013Z" fill="#323232"/>
</svg>
