<svg width="22" height="28" viewBox="0 0 22 28" fill="none" xmlns="http://www.w3.org/2000/svg">
<path d="M21.6666 6.70514V24.0012C21.6666 25.8421 20.1742 27.3345 18.3333 27.3345H3.66659C1.82564 27.3345 0.333252 25.8421 0.333252 24.0012V4.00117C0.333252 2.16022 1.82564 0.66784 3.66659 0.66784H15.6293C15.8063 0.656614 15.9905 0.715627 16.138 0.863103L21.4713 6.19644C21.6188 6.34391 21.6778 6.52815 21.6666 6.70514ZM14.9999 2.00117H3.66659C2.56202 2.00117 1.66659 2.8966 1.66659 4.00117V24.0012C1.66659 25.1057 2.56202 26.0012 3.66659 26.0012H18.3333C19.4378 26.0012 20.3333 25.1057 20.3333 24.0012V7.33451H15.6666C15.2984 7.33451 14.9999 7.03603 14.9999 6.66784V2.00117ZM16.3333 2.94398V6.00117H19.3904L16.3333 2.94398ZM10.9999 12.276V21.3332C10.9999 21.7014 10.7014 21.9998 10.3333 21.9998C9.96506 21.9998 9.66659 21.7014 9.66659 21.3332V12.276L6.80466 15.1379C6.54431 15.3983 6.1222 15.3983 5.86185 15.1379C5.6015 14.8776 5.6015 14.4554 5.86185 14.1951L9.86185 10.1951C10.1222 9.93475 10.5443 9.93475 10.8047 10.1951L14.8047 14.1951C15.065 14.4554 15.065 14.8776 14.8047 15.1379C14.5443 15.3983 14.1222 15.3983 13.8618 15.1379L10.9999 12.276Z" fill="#323232"/>
</svg>
